<mxfile host="Electron" modified="2024-02-12T22:55:05.256Z" agent="Mozilla/5.0 (X11; Linux x86_64) AppleWebKit/537.36 (KHTML, like Gecko) draw.io/23.0.2 Chrome/120.0.6099.109 Electron/28.1.0 Safari/537.36" etag="w2bKOGN-qdGTZlH-oCJP" version="23.0.2" type="device">
  <diagram name="Page-1" id="mkau6C6uTYNiCd6FbnTu">
    <mxGraphModel dx="847" dy="709" grid="1" gridSize="10" guides="1" tooltips="1" connect="0" arrows="1" fold="1" page="1" pageScale="1" pageWidth="850" pageHeight="1100" math="0" shadow="0">
      <root>
        <mxCell id="0" />
        <mxCell id="1" parent="0" />
        <mxCell id="10-0LcXhZX93ZcMQ_UFK-10" style="edgeStyle=orthogonalEdgeStyle;rounded=0;orthogonalLoop=1;jettySize=auto;html=1;exitX=0.5;exitY=1;exitDx=0;exitDy=0;entryX=0.5;entryY=0;entryDx=0;entryDy=0;strokeWidth=2;" edge="1" parent="1" source="10-0LcXhZX93ZcMQ_UFK-1" target="10-0LcXhZX93ZcMQ_UFK-2">
          <mxGeometry relative="1" as="geometry" />
        </mxCell>
        <mxCell id="10-0LcXhZX93ZcMQ_UFK-1" value="&lt;font style=&quot;&quot;&gt;&lt;font style=&quot;font-size: 16px;&quot;&gt;Initial Balance&lt;/font&gt;&lt;br style=&quot;font-size: 13px;&quot;&gt;&lt;/font&gt;" style="rounded=1;whiteSpace=wrap;html=1;fillColor=#ffe6cc;strokeColor=#d79b00;fontSize=13;fontStyle=1" vertex="1" parent="1">
          <mxGeometry x="240" y="20" width="120" height="60" as="geometry" />
        </mxCell>
        <mxCell id="10-0LcXhZX93ZcMQ_UFK-11" style="edgeStyle=orthogonalEdgeStyle;rounded=0;orthogonalLoop=1;jettySize=auto;html=1;exitX=0.5;exitY=1;exitDx=0;exitDy=0;entryX=0.5;entryY=0;entryDx=0;entryDy=0;strokeWidth=2;" edge="1" parent="1" source="10-0LcXhZX93ZcMQ_UFK-2" target="10-0LcXhZX93ZcMQ_UFK-3">
          <mxGeometry relative="1" as="geometry" />
        </mxCell>
        <mxCell id="10-0LcXhZX93ZcMQ_UFK-2" value="&lt;font style=&quot;font-size: 14px;&quot;&gt;Initialize the tracker variables&lt;/font&gt;" style="rounded=0;whiteSpace=wrap;html=1;fillColor=#dae8fc;strokeColor=#6c8ebf;fontSize=14;fontStyle=1" vertex="1" parent="1">
          <mxGeometry x="240" y="140" width="120" height="60" as="geometry" />
        </mxCell>
        <mxCell id="10-0LcXhZX93ZcMQ_UFK-12" style="edgeStyle=orthogonalEdgeStyle;rounded=0;orthogonalLoop=1;jettySize=auto;html=1;exitX=0.504;exitY=0.888;exitDx=0;exitDy=0;exitPerimeter=0;strokeWidth=2;" edge="1" parent="1" source="10-0LcXhZX93ZcMQ_UFK-3" target="10-0LcXhZX93ZcMQ_UFK-4">
          <mxGeometry relative="1" as="geometry" />
        </mxCell>
        <mxCell id="10-0LcXhZX93ZcMQ_UFK-3" value="&lt;font style=&quot;font-size: 14px;&quot;&gt;Play every machine once and update the UCBs&lt;/font&gt;" style="shape=document;whiteSpace=wrap;html=1;boundedLbl=1;fillColor=#e1d5e7;strokeColor=#9673a6;fontSize=13;fontStyle=1" vertex="1" parent="1">
          <mxGeometry x="240" y="250" width="120" height="90" as="geometry" />
        </mxCell>
        <mxCell id="10-0LcXhZX93ZcMQ_UFK-13" style="edgeStyle=orthogonalEdgeStyle;rounded=0;orthogonalLoop=1;jettySize=auto;html=1;entryX=0.5;entryY=0;entryDx=0;entryDy=0;strokeWidth=2;" edge="1" parent="1" source="10-0LcXhZX93ZcMQ_UFK-4" target="10-0LcXhZX93ZcMQ_UFK-5">
          <mxGeometry relative="1" as="geometry" />
        </mxCell>
        <mxCell id="10-0LcXhZX93ZcMQ_UFK-4" value="While:&lt;br style=&quot;font-size: 15px;&quot;&gt;&amp;nbsp;money&amp;gt;cost &lt;br style=&quot;font-size: 15px;&quot;&gt;AND&lt;br style=&quot;font-size: 15px;&quot;&gt;&amp;nbsp;k&amp;lt;Max # of Plays" style="rhombus;whiteSpace=wrap;html=1;fillColor=#f8cecc;strokeColor=#b85450;fontSize=15;fontStyle=1" vertex="1" parent="1">
          <mxGeometry x="201.25" y="400" width="197.5" height="180" as="geometry" />
        </mxCell>
        <mxCell id="10-0LcXhZX93ZcMQ_UFK-14" style="edgeStyle=orthogonalEdgeStyle;rounded=0;orthogonalLoop=1;jettySize=auto;html=1;entryX=0.5;entryY=0;entryDx=0;entryDy=0;strokeWidth=2;" edge="1" parent="1" source="10-0LcXhZX93ZcMQ_UFK-5" target="10-0LcXhZX93ZcMQ_UFK-8">
          <mxGeometry relative="1" as="geometry" />
        </mxCell>
        <mxCell id="10-0LcXhZX93ZcMQ_UFK-5" value="Label the machine with the highest current UCB" style="rounded=1;whiteSpace=wrap;html=1;fillColor=#d5e8d4;strokeColor=#82b366;fontSize=13;fontStyle=1" vertex="1" parent="1">
          <mxGeometry x="235" y="650" width="130" height="60" as="geometry" />
        </mxCell>
        <mxCell id="10-0LcXhZX93ZcMQ_UFK-15" style="edgeStyle=orthogonalEdgeStyle;rounded=0;orthogonalLoop=1;jettySize=auto;html=1;exitX=0.5;exitY=1;exitDx=0;exitDy=0;entryX=0.5;entryY=0;entryDx=0;entryDy=0;strokeWidth=2;" edge="1" parent="1" source="10-0LcXhZX93ZcMQ_UFK-8" target="10-0LcXhZX93ZcMQ_UFK-9">
          <mxGeometry relative="1" as="geometry" />
        </mxCell>
        <mxCell id="10-0LcXhZX93ZcMQ_UFK-8" value="Play the machine you labeled" style="rounded=1;whiteSpace=wrap;html=1;fillColor=#dae8fc;strokeColor=#6c8ebf;fontSize=13;fontStyle=1" vertex="1" parent="1">
          <mxGeometry x="235" y="770" width="130" height="60" as="geometry" />
        </mxCell>
        <mxCell id="10-0LcXhZX93ZcMQ_UFK-9" value="Update the money you have and the UCBs" style="rounded=1;whiteSpace=wrap;html=1;fillColor=#ffe6cc;strokeColor=#d79b00;fontSize=13;fontStyle=1" vertex="1" parent="1">
          <mxGeometry x="235" y="890" width="130" height="60" as="geometry" />
        </mxCell>
        <mxCell id="10-0LcXhZX93ZcMQ_UFK-19" style="edgeStyle=orthogonalEdgeStyle;rounded=0;orthogonalLoop=1;jettySize=auto;html=1;exitX=1;exitY=0.5;exitDx=0;exitDy=0;entryX=0.988;entryY=0.489;entryDx=0;entryDy=0;entryPerimeter=0;strokeWidth=2;" edge="1" parent="1" source="10-0LcXhZX93ZcMQ_UFK-9" target="10-0LcXhZX93ZcMQ_UFK-4">
          <mxGeometry relative="1" as="geometry">
            <Array as="points">
              <mxPoint x="520" y="920" />
              <mxPoint x="520" y="488" />
            </Array>
          </mxGeometry>
        </mxCell>
        <mxCell id="10-0LcXhZX93ZcMQ_UFK-20" value="END" style="rounded=1;whiteSpace=wrap;html=1;fillColor=#0050ef;strokeColor=#001DBC;fontColor=#ffffff;fontSize=25;" vertex="1" parent="1">
          <mxGeometry x="235" y="1000" width="130" height="60" as="geometry" />
        </mxCell>
        <mxCell id="10-0LcXhZX93ZcMQ_UFK-21" style="edgeStyle=orthogonalEdgeStyle;rounded=0;orthogonalLoop=1;jettySize=auto;html=1;entryX=0.001;entryY=0.482;entryDx=0;entryDy=0;entryPerimeter=0;strokeWidth=2;" edge="1" parent="1" target="10-0LcXhZX93ZcMQ_UFK-20">
          <mxGeometry relative="1" as="geometry">
            <mxPoint x="202.50000000000023" y="489.9999999999998" as="sourcePoint" />
            <mxPoint x="137.1099999999999" y="943.4799999999998" as="targetPoint" />
            <Array as="points">
              <mxPoint x="203" y="491" />
              <mxPoint x="130" y="491" />
              <mxPoint x="130" y="1029" />
            </Array>
          </mxGeometry>
        </mxCell>
        <mxCell id="10-0LcXhZX93ZcMQ_UFK-22" value="True" style="text;html=1;strokeColor=none;fillColor=none;align=center;verticalAlign=middle;whiteSpace=wrap;rounded=0;fontSize=15;" vertex="1" parent="1">
          <mxGeometry x="290" y="591" width="60" height="30" as="geometry" />
        </mxCell>
        <mxCell id="10-0LcXhZX93ZcMQ_UFK-23" value="False" style="text;html=1;strokeColor=none;fillColor=none;align=center;verticalAlign=middle;whiteSpace=wrap;rounded=0;fontSize=15;" vertex="1" parent="1">
          <mxGeometry x="142.5" y="490" width="60" height="30" as="geometry" />
        </mxCell>
      </root>
    </mxGraphModel>
  </diagram>
</mxfile>
